<?xml version="1.0" encoding="utf-8" standalone="no"?>
<!DOCTYPE svg PUBLIC "-//W3C//DTD SVG 1.1//EN"
  "http://www.w3.org/Graphics/SVG/1.1/DTD/svg11.dtd">
<svg xmlns:xlink="http://www.w3.org/1999/xlink" width="1094.4pt" height="561.6pt" viewBox="0 0 1094.4 561.6" xmlns="http://www.w3.org/2000/svg" version="1.1">
 <metadata>
  <rdf:RDF xmlns:dc="http://purl.org/dc/elements/1.1/" xmlns:cc="http://creativecommons.org/ns#" xmlns:rdf="http://www.w3.org/1999/02/22-rdf-syntax-ns#">
   <cc:Work>
    <dc:type rdf:resource="http://purl.org/dc/dcmitype/StillImage"/>
    <dc:date>2026-09-17T17:53:29.546235</dc:date>
    <dc:format>image/svg+xml</dc:format>
    <dc:creator>
     <cc:Agent>
      <dc:title>Matplotlib v3.10.6, https://matplotlib.org/</dc:title>
     </cc:Agent>
    </dc:creator>
   </cc:Work>
  </rdf:RDF>
 </metadata>
 <defs>
  <style type="text/css">*{stroke-linejoin: round; stroke-linecap: butt}</style>
 </defs>
 <g id="figure_1">
  <g id="patch_1">
   <path d="M 0 561.6
L 1094.4 561.6
L 1094.4 0
L 0 0
z
" style="fill: #f4f7fa"/>
  </g>
  <g id="axes_1">
   <g id="patch_2">
    <path d="M 71.136 398.736
L 290.993143 398.736
L 290.993143 179.712
L 71.136 179.712
z
" style="fill: #f4f7fa"/>
   </g>
   <g id="matplotlib.axis_1">
    <g id="xtick_1">
     <g id="line2d_1">
      <path d="M 71.136 398.736
L 71.136 179.712
" clip-path="url(#p49db801394)" style="fill: none; stroke: #dae3eb; stroke-width: 0.8; stroke-linecap: square"/>
     </g>
     <g id="line2d_2"/>
     <g id="text_1">
      <text style="font-size: 12px; font-family: 'DejaVu Sans'; text-anchor: middle; fill: #516572" x="71.136" y="411.354125" transform="rotate(-0 71.136 411.354125)">0%</text>
     </g>
    </g>
    <g id="xtick_2">
     <g id="line2d_3">
      <path d="M 126.100286 398.736
L 126.100286 179.712
" clip-path="url(#p49db801394)" style="fill: none; stroke: #dae3eb; stroke-width: 0.8; stroke-linecap: square"/>
     </g>
     <g id="line2d_4"/>
     <g id="text_2">
      <text style="font-size: 12px; font-family: 'DejaVu Sans'; text-anchor: middle; fill: #516572" x="126.100286" y="411.354125" transform="rotate(-0 126.100286 411.354125)">10%</text>
     </g>
    </g>
    <g id="xtick_3">
     <g id="line2d_5">
      <path d="M 181.064571 398.736
L 181.064571 179.712
" clip-path="url(#p49db801394)" style="fill: none; stroke: #dae3eb; stroke-width: 0.8; stroke-linecap: square"/>
     </g>
     <g id="line2d_6"/>
     <g id="text_3">
      <text style="font-size: 12px; font-family: 'DejaVu Sans'; text-anchor: middle; fill: #516572" x="181.064571" y="411.354125" transform="rotate(-0 181.064571 411.354125)">20%</text>
     </g>
    </g>
    <g id="xtick_4">
     <g id="line2d_7">
      <path d="M 236.028857 398.736
L 236.028857 179.712
" clip-path="url(#p49db801394)" style="fill: none; stroke: #dae3eb; stroke-width: 0.8; stroke-linecap: square"/>
     </g>
     <g id="line2d_8"/>
     <g id="text_4">
      <text style="font-size: 12px; font-family: 'DejaVu Sans'; text-anchor: middle; fill: #516572" x="236.028857" y="411.354125" transform="rotate(-0 236.028857 411.354125)">30%</text>
     </g>
    </g>
    <g id="xtick_5">
     <g id="line2d_9">
      <path d="M 290.993143 398.736
L 290.993143 179.712
" clip-path="url(#p49db801394)" style="fill: none; stroke: #dae3eb; stroke-width: 0.8; stroke-linecap: square"/>
     </g>
     <g id="line2d_10"/>
     <g id="text_5">
      <text style="font-size: 12px; font-family: 'DejaVu Sans'; text-anchor: middle; fill: #516572" x="290.993143" y="411.354125" transform="rotate(-0 290.993143 411.354125)">40%</text>
     </g>
    </g>
   </g>
   <g id="matplotlib.axis_2">
    <g id="ytick_1">
     <g id="line2d_11"/>
     <g id="text_6">
      <text style="font-weight: 700; font-size: 12px; font-family: 'DejaVu Sans'; text-anchor: end; fill: #516572" x="67.636" y="202.523062" transform="rotate(-0 67.636 202.523062)">S</text>
     </g>
    </g>
    <g id="ytick_2">
     <g id="line2d_12"/>
     <g id="text_7">
      <text style="font-weight: 700; font-size: 12px; font-family: 'DejaVu Sans'; text-anchor: end; fill: #516572" x="67.636" y="228.597348" transform="rotate(-0 67.636 228.597348)">V</text>
     </g>
    </g>
    <g id="ytick_3">
     <g id="line2d_13"/>
     <g id="text_8">
      <text style="font-weight: 700; font-size: 12px; font-family: 'DejaVu Sans'; text-anchor: end; fill: #516572" x="67.636" y="254.671634" transform="rotate(-0 67.636 254.671634)">MP</text>
     </g>
    </g>
    <g id="ytick_4">
     <g id="line2d_14"/>
     <g id="text_9">
      <text style="font-weight: 700; font-size: 12px; font-family: 'DejaVu Sans'; text-anchor: end; fill: #516572" x="67.636" y="280.74592" transform="rotate(-0 67.636 280.74592)">C</text>
     </g>
    </g>
    <g id="ytick_5">
     <g id="line2d_15"/>
     <g id="text_10">
      <text style="font-weight: 700; font-size: 12px; font-family: 'DejaVu Sans'; text-anchor: end; fill: #516572" x="67.636" y="306.820205" transform="rotate(-0 67.636 306.820205)">L</text>
     </g>
    </g>
    <g id="ytick_6">
     <g id="line2d_16"/>
     <g id="text_11">
      <text style="font-weight: 700; font-size: 12px; font-family: 'DejaVu Sans'; text-anchor: end; fill: #516572" x="67.636" y="332.894491" transform="rotate(-0 67.636 332.894491)">M</text>
     </g>
    </g>
    <g id="ytick_7">
     <g id="line2d_17"/>
     <g id="text_12">
      <text style="font-weight: 700; font-size: 12px; font-family: 'DejaVu Sans'; text-anchor: end; fill: #516572" x="67.636" y="358.968777" transform="rotate(-0 67.636 358.968777)">KD</text>
     </g>
    </g>
    <g id="ytick_8">
     <g id="line2d_18"/>
     <g id="text_13">
      <text style="font-weight: 700; font-size: 12px; font-family: 'DejaVu Sans'; text-anchor: end; fill: #516572" x="67.636" y="385.043063" transform="rotate(-0 67.636 385.043063)">SD</text>
     </g>
    </g>
   </g>
   <g id="patch_3">
    <path d="M 71.136 189.620229
L 241.525286 189.620229
L 241.525286 206.307771
L 71.136 206.307771
z
" clip-path="url(#p49db801394)" style="fill: #cf3049"/>
   </g>
   <g id="patch_4">
    <path d="M 71.136 215.694514
L 126.100286 215.694514
L 126.100286 232.382057
L 71.136 232.382057
z
" clip-path="url(#p49db801394)" style="fill: #96254b"/>
   </g>
   <g id="patch_5">
    <path d="M 71.136 241.7688
L 93.121714 241.7688
L 93.121714 258.456343
L 71.136 258.456343
z
" clip-path="url(#p49db801394)" style="fill: #80a52b"/>
   </g>
   <g id="patch_6">
    <path d="M 71.136 267.843086
L 93.121714 267.843086
L 93.121714 284.530629
L 71.136 284.530629
z
" clip-path="url(#p49db801394)" style="fill: #268659"/>
   </g>
   <g id="patch_7">
    <path d="M 71.136 293.917371
L 87.625286 293.917371
L 87.625286 310.604914
L 71.136 310.604914
z
" clip-path="url(#p49db801394)" style="fill: #259bbb"/>
   </g>
   <g id="patch_8">
    <path d="M 71.136 319.991657
L 153.582429 319.991657
L 153.582429 336.6792
L 71.136 336.6792
z
" clip-path="url(#p49db801394)" style="fill: #2074b6"/>
   </g>
   <g id="patch_9">
    <path d="M 71.136 346.065943
L 104.114571 346.065943
L 104.114571 362.753486
L 71.136 362.753486
z
" clip-path="url(#p49db801394)" style="fill: #51469a"/>
   </g>
   <g id="patch_10">
    <path d="M 71.136 372.140229
L 208.546714 372.140229
L 208.546714 388.827771
L 71.136 388.827771
z
" clip-path="url(#p49db801394)" style="fill: #d3a700"/>
   </g>
   <g id="text_14">
    <text style="font-weight: 700; font-size: 13px; font-family: 'DejaVu Sans'; text-anchor: middle" x="181.064571" y="163.712" transform="rotate(-0 181.064571 163.712)">Trabajadores manuales</text>
   </g>
   <g id="PathCollection_1">
    <path d="M 225.084054 199.120669
L 223.880232 202.825652
L 219.984582 202.825652
L 223.136229 205.115458
L 221.932407 208.820442
L 225.084054 206.530636
L 228.235701 208.820442
L 227.031879 205.115458
L 230.183526 202.825652
L 226.287876 202.825652
z
" clip-path="url(#p49db801394)" style="fill: #ffe08a; stroke: #ffffff; stroke-width: 2.4"/>
    <path d="M 225.084054 199.120669
L 223.880232 202.825652
L 219.984582 202.825652
L 223.136229 205.115458
L 221.932407 208.820442
L 225.084054 206.530636
L 228.235701 208.820442
L 227.031879 205.115458
L 230.183526 202.825652
L 226.287876 202.825652
z
" clip-path="url(#p49db801394)" style="fill: #ffe08a; stroke: #17384a; stroke-width: 0.8"/>
    <path d="M 117.291407 225.194954
L 116.087584 228.899938
L 112.191934 228.899938
L 115.343581 231.189744
L 114.139759 234.894728
L 117.291407 232.604922
L 120.443054 234.894728
L 119.239232 231.189744
L 122.390879 228.899938
L 118.495229 228.899938
z
" clip-path="url(#p49db801394)" style="fill: #ffe08a; stroke: #ffffff; stroke-width: 2.4"/>
    <path d="M 117.291407 225.194954
L 116.087584 228.899938
L 112.191934 228.899938
L 115.343581 231.189744
L 114.139759 234.894728
L 117.291407 232.604922
L 120.443054 234.894728
L 119.239232 231.189744
L 122.390879 228.899938
L 118.495229 228.899938
z
" clip-path="url(#p49db801394)" style="fill: #ffe08a; stroke: #17384a; stroke-width: 0.8"/>
    <path d="M 104.845668 251.26924
L 103.641846 254.974224
L 99.746195 254.974224
L 102.897843 257.26403
L 101.69402 260.969013
L 104.845668 258.679207
L 107.997315 260.969013
L 106.793493 257.26403
L 109.94514 254.974224
L 106.04949 254.974224
z
" clip-path="url(#p49db801394)" style="fill: #ffe08a; stroke: #ffffff; stroke-width: 2.4"/>
    <path d="M 104.845668 251.26924
L 103.641846 254.974224
L 99.746195 254.974224
L 102.897843 257.26403
L 101.69402 260.969013
L 104.845668 258.679207
L 107.997315 260.969013
L 106.793493 257.26403
L 109.94514 254.974224
L 106.04949 254.974224
z
" clip-path="url(#p49db801394)" style="fill: #ffe08a; stroke: #17384a; stroke-width: 0.8"/>
    <path d="M 109.860211 277.343526
L 108.656389 281.04851
L 104.760739 281.04851
L 107.912386 283.338315
L 106.708564 287.043299
L 109.860211 284.753493
L 113.011858 287.043299
L 111.808036 283.338315
L 114.959683 281.04851
L 111.064033 281.04851
z
" clip-path="url(#p49db801394)" style="fill: #ffe08a; stroke: #ffffff; stroke-width: 2.4"/>
    <path d="M 109.860211 277.343526
L 108.656389 281.04851
L 104.760739 281.04851
L 107.912386 283.338315
L 106.708564 287.043299
L 109.860211 284.753493
L 113.011858 287.043299
L 111.808036 283.338315
L 114.959683 281.04851
L 111.064033 281.04851
z
" clip-path="url(#p49db801394)" style="fill: #ffe08a; stroke: #17384a; stroke-width: 0.8"/>
    <path d="M 100.500182 303.417812
L 99.29636 307.122795
L 95.400709 307.122795
L 98.552357 309.412601
L 97.348534 313.117585
L 100.500182 310.827779
L 103.651829 313.117585
L 102.448007 309.412601
L 105.599654 307.122795
L 101.704004 307.122795
z
" clip-path="url(#p49db801394)" style="fill: #ffe08a; stroke: #ffffff; stroke-width: 2.4"/>
    <path d="M 100.500182 303.417812
L 99.29636 307.122795
L 95.400709 307.122795
L 98.552357 309.412601
L 97.348534 313.117585
L 100.500182 310.827779
L 103.651829 313.117585
L 102.448007 309.412601
L 105.599654 307.122795
L 101.704004 307.122795
z
" clip-path="url(#p49db801394)" style="fill: #ffe08a; stroke: #17384a; stroke-width: 0.8"/>
    <path d="M 180.222778 329.492097
L 179.018956 333.197081
L 175.123306 333.197081
L 178.274953 335.486887
L 177.071131 339.19187
L 180.222778 336.902065
L 183.374426 339.19187
L 182.170603 335.486887
L 185.322251 333.197081
L 181.4266 333.197081
z
" clip-path="url(#p49db801394)" style="fill: #ffe08a; stroke: #ffffff; stroke-width: 2.4"/>
    <path d="M 180.222778 329.492097
L 179.018956 333.197081
L 175.123306 333.197081
L 178.274953 335.486887
L 177.071131 339.19187
L 180.222778 336.902065
L 183.374426 339.19187
L 182.170603 335.486887
L 185.322251 333.197081
L 181.4266 333.197081
z
" clip-path="url(#p49db801394)" style="fill: #ffe08a; stroke: #17384a; stroke-width: 0.8"/>
    <path d="M 105.071951 355.566383
L 103.868129 359.271367
L 99.972478 359.271367
L 103.124126 361.561172
L 101.920304 365.266156
L 105.071951 362.97635
L 108.223598 365.266156
L 107.019776 361.561172
L 110.171423 359.271367
L 106.275773 359.271367
z
" clip-path="url(#p49db801394)" style="fill: #ffe08a; stroke: #ffffff; stroke-width: 2.4"/>
    <path d="M 105.071951 355.566383
L 103.868129 359.271367
L 99.972478 359.271367
L 103.124126 361.561172
L 101.920304 365.266156
L 105.071951 362.97635
L 108.223598 365.266156
L 107.019776 361.561172
L 110.171423 359.271367
L 106.275773 359.271367
z
" clip-path="url(#p49db801394)" style="fill: #ffe08a; stroke: #17384a; stroke-width: 0.8"/>
    <path d="M 167.168858 381.640669
L 165.965035 385.345652
L 162.069385 385.345652
L 165.221032 387.635458
L 164.01721 391.340442
L 167.168858 389.050636
L 170.320505 391.340442
L 169.116683 387.635458
L 172.26833 385.345652
L 168.37268 385.345652
z
" clip-path="url(#p49db801394)" style="fill: #ffe08a; stroke: #ffffff; stroke-width: 2.4"/>
    <path d="M 167.168858 381.640669
L 165.965035 385.345652
L 162.069385 385.345652
L 165.221032 387.635458
L 164.01721 391.340442
L 167.168858 389.050636
L 170.320505 391.340442
L 169.116683 387.635458
L 172.26833 385.345652
L 168.37268 385.345652
z
" clip-path="url(#p49db801394)" style="fill: #ffe08a; stroke: #17384a; stroke-width: 0.8"/>
   </g>
   <g id="text_15">
    <text style="font-weight: 700; font-size: 11px; font-family: 'DejaVu Sans'; text-anchor: start; fill: #17384a" x="244.548321" y="193.959255" transform="rotate(-0 244.548321 193.959255)">31.0%</text>
   </g>
   <g id="text_16">
    <text style="font-weight: 700; font-size: 11px; font-family: 'DejaVu Sans'; text-anchor: start; fill: #17384a" x="129.123321" y="220.033541" transform="rotate(-0 129.123321 220.033541)">10.0%</text>
   </g>
   <g id="text_17">
    <text style="font-weight: 700; font-size: 11px; font-family: 'DejaVu Sans'; text-anchor: start; fill: #17384a" x="96.14475" y="246.107827" transform="rotate(-0 96.14475 246.107827)">4.0%</text>
   </g>
   <g id="text_18">
    <text style="font-weight: 700; font-size: 11px; font-family: 'DejaVu Sans'; text-anchor: start; fill: #17384a" x="96.14475" y="272.182112" transform="rotate(-0 96.14475 272.182112)">4.0%</text>
   </g>
   <g id="text_19">
    <text style="font-weight: 700; font-size: 11px; font-family: 'DejaVu Sans'; text-anchor: start; fill: #17384a" x="90.648321" y="298.256398" transform="rotate(-0 90.648321 298.256398)">3.0%</text>
   </g>
   <g id="text_20">
    <text style="font-weight: 700; font-size: 11px; font-family: 'DejaVu Sans'; text-anchor: start; fill: #17384a" x="156.605464" y="324.330684" transform="rotate(-0 156.605464 324.330684)">15.0%</text>
   </g>
   <g id="text_21">
    <text style="font-weight: 700; font-size: 11px; font-family: 'DejaVu Sans'; text-anchor: start; fill: #17384a" x="107.137607" y="350.40497" transform="rotate(-0 107.137607 350.40497)">6.0%</text>
   </g>
   <g id="text_22">
    <text style="font-weight: 700; font-size: 11px; font-family: 'DejaVu Sans'; text-anchor: start; fill: #17384a" x="211.56975" y="376.479255" transform="rotate(-0 211.56975 376.479255)">25.0%</text>
   </g>
  </g>
  <g id="axes_2">
   <g id="patch_11">
    <path d="M 326.170286 398.736
L 546.027429 398.736
L 546.027429 179.712
L 326.170286 179.712
z
" style="fill: #f4f7fa"/>
   </g>
   <g id="matplotlib.axis_3">
    <g id="xtick_6">
     <g id="line2d_19">
      <path d="M 326.170286 398.736
L 326.170286 179.712
" clip-path="url(#p31d3970042)" style="fill: none; stroke: #dae3eb; stroke-width: 0.8; stroke-linecap: square"/>
     </g>
     <g id="line2d_20"/>
     <g id="text_23">
      <text style="font-size: 12px; font-family: 'DejaVu Sans'; text-anchor: middle; fill: #516572" x="326.170286" y="411.354125" transform="rotate(-0 326.170286 411.354125)">0%</text>
     </g>
    </g>
    <g id="xtick_7">
     <g id="line2d_21">
      <path d="M 381.134571 398.736
L 381.134571 179.712
" clip-path="url(#p31d3970042)" style="fill: none; stroke: #dae3eb; stroke-width: 0.8; stroke-linecap: square"/>
     </g>
     <g id="line2d_22"/>
     <g id="text_24">
      <text style="font-size: 12px; font-family: 'DejaVu Sans'; text-anchor: middle; fill: #516572" x="381.134571" y="411.354125" transform="rotate(-0 381.134571 411.354125)">10%</text>
     </g>
    </g>
    <g id="xtick_8">
     <g id="line2d_23">
      <path d="M 436.098857 398.736
L 436.098857 179.712
" clip-path="url(#p31d3970042)" style="fill: none; stroke: #dae3eb; stroke-width: 0.8; stroke-linecap: square"/>
     </g>
     <g id="line2d_24"/>
     <g id="text_25">
      <text style="font-size: 12px; font-family: 'DejaVu Sans'; text-anchor: middle; fill: #516572" x="436.098857" y="411.354125" transform="rotate(-0 436.098857 411.354125)">20%</text>
     </g>
    </g>
    <g id="xtick_9">
     <g id="line2d_25">
      <path d="M 491.063143 398.736
L 491.063143 179.712
" clip-path="url(#p31d3970042)" style="fill: none; stroke: #dae3eb; stroke-width: 0.8; stroke-linecap: square"/>
     </g>
     <g id="line2d_26"/>
     <g id="text_26">
      <text style="font-size: 12px; font-family: 'DejaVu Sans'; text-anchor: middle; fill: #516572" x="491.063143" y="411.354125" transform="rotate(-0 491.063143 411.354125)">30%</text>
     </g>
    </g>
    <g id="xtick_10">
     <g id="line2d_27">
      <path d="M 546.027429 398.736
L 546.027429 179.712
" clip-path="url(#p31d3970042)" style="fill: none; stroke: #dae3eb; stroke-width: 0.8; stroke-linecap: square"/>
     </g>
     <g id="line2d_28"/>
     <g id="text_27">
      <text style="font-size: 12px; font-family: 'DejaVu Sans'; text-anchor: middle; fill: #516572" x="546.027429" y="411.354125" transform="rotate(-0 546.027429 411.354125)">40%</text>
     </g>
    </g>
   </g>
   <g id="matplotlib.axis_4">
    <g id="ytick_9">
     <g id="line2d_29"/>
    </g>
    <g id="ytick_10">
     <g id="line2d_30"/>
    </g>
    <g id="ytick_11">
     <g id="line2d_31"/>
    </g>
    <g id="ytick_12">
     <g id="line2d_32"/>
    </g>
    <g id="ytick_13">
     <g id="line2d_33"/>
    </g>
    <g id="ytick_14">
     <g id="line2d_34"/>
    </g>
    <g id="ytick_15">
     <g id="line2d_35"/>
    </g>
    <g id="ytick_16">
     <g id="line2d_36"/>
    </g>
   </g>
   <g id="patch_12">
    <path d="M 326.170286 189.620229
L 480.070286 189.620229
L 480.070286 206.307771
L 326.170286 206.307771
z
" clip-path="url(#p31d3970042)" style="fill: #cf3049"/>
   </g>
   <g id="patch_13">
    <path d="M 326.170286 215.694514
L 364.645286 215.694514
L 364.645286 232.382057
L 326.170286 232.382057
z
" clip-path="url(#p31d3970042)" style="fill: #96254b"/>
   </g>
   <g id="patch_14">
    <path d="M 326.170286 241.7688
L 364.645286 241.7688
L 364.645286 258.456343
L 326.170286 258.456343
z
" clip-path="url(#p31d3970042)" style="fill: #80a52b"/>
   </g>
   <g id="patch_15">
    <path d="M 326.170286 267.843086
L 375.638143 267.843086
L 375.638143 284.530629
L 326.170286 284.530629
z
" clip-path="url(#p31d3970042)" style="fill: #268659"/>
   </g>
   <g id="patch_16">
    <path d="M 326.170286 293.917371
L 364.645286 293.917371
L 364.645286 310.604914
L 326.170286 310.604914
z
" clip-path="url(#p31d3970042)" style="fill: #259bbb"/>
   </g>
   <g id="patch_17">
    <path d="M 326.170286 319.991657
L 447.091714 319.991657
L 447.091714 336.6792
L 326.170286 336.6792
z
" clip-path="url(#p31d3970042)" style="fill: #2074b6"/>
   </g>
   <g id="patch_18">
    <path d="M 326.170286 346.065943
L 364.645286 346.065943
L 364.645286 362.753486
L 326.170286 362.753486
z
" clip-path="url(#p31d3970042)" style="fill: #51469a"/>
   </g>
   <g id="patch_19">
    <path d="M 326.170286 372.140229
L 392.127429 372.140229
L 392.127429 388.827771
L 326.170286 388.827771
z
" clip-path="url(#p31d3970042)" style="fill: #d3a700"/>
   </g>
   <g id="text_28">
    <text style="font-weight: 700; font-size: 13px; font-family: 'DejaVu Sans'; text-anchor: middle" x="436.098857" y="163.712" transform="rotate(-0 436.098857 163.712)">Empleados no manuales</text>
   </g>
   <g id="PathCollection_2">
    <path d="M 480.11834 199.120669
L 478.914518 202.825652
L 475.018867 202.825652
L 478.170515 205.115458
L 476.966692 208.820442
L 480.11834 206.530636
L 483.269987 208.820442
L 482.066165 205.115458
L 485.217812 202.825652
L 481.322162 202.825652
z
" clip-path="url(#p31d3970042)" style="fill: #ffe08a; stroke: #ffffff; stroke-width: 2.4"/>
    <path d="M 480.11834 199.120669
L 478.914518 202.825652
L 475.018867 202.825652
L 478.170515 205.115458
L 476.966692 208.820442
L 480.11834 206.530636
L 483.269987 208.820442
L 482.066165 205.115458
L 485.217812 202.825652
L 481.322162 202.825652
z
" clip-path="url(#p31d3970042)" style="fill: #ffe08a; stroke: #17384a; stroke-width: 0.8"/>
    <path d="M 372.325692 225.194954
L 371.12187 228.899938
L 367.22622 228.899938
L 370.377867 231.189744
L 369.174045 234.894728
L 372.325692 232.604922
L 375.47734 234.894728
L 374.273517 231.189744
L 377.425165 228.899938
L 373.529514 228.899938
z
" clip-path="url(#p31d3970042)" style="fill: #ffe08a; stroke: #ffffff; stroke-width: 2.4"/>
    <path d="M 372.325692 225.194954
L 371.12187 228.899938
L 367.22622 228.899938
L 370.377867 231.189744
L 369.174045 234.894728
L 372.325692 232.604922
L 375.47734 234.894728
L 374.273517 231.189744
L 377.425165 228.899938
L 373.529514 228.899938
z
" clip-path="url(#p31d3970042)" style="fill: #ffe08a; stroke: #17384a; stroke-width: 0.8"/>
    <path d="M 359.879953 251.26924
L 358.676131 254.974224
L 354.780481 254.974224
L 357.932128 257.26403
L 356.728306 260.969013
L 359.879953 258.679207
L 363.031601 260.969013
L 361.827779 257.26403
L 364.979426 254.974224
L 361.083776 254.974224
z
" clip-path="url(#p31d3970042)" style="fill: #ffe08a; stroke: #ffffff; stroke-width: 2.4"/>
    <path d="M 359.879953 251.26924
L 358.676131 254.974224
L 354.780481 254.974224
L 357.932128 257.26403
L 356.728306 260.969013
L 359.879953 258.679207
L 363.031601 260.969013
L 361.827779 257.26403
L 364.979426 254.974224
L 361.083776 254.974224
z
" clip-path="url(#p31d3970042)" style="fill: #ffe08a; stroke: #17384a; stroke-width: 0.8"/>
    <path d="M 364.894497 277.343526
L 363.690675 281.04851
L 359.795024 281.04851
L 362.946672 283.338315
L 361.742849 287.043299
L 364.894497 284.753493
L 368.046144 287.043299
L 366.842322 283.338315
L 369.993969 281.04851
L 366.098319 281.04851
z
" clip-path="url(#p31d3970042)" style="fill: #ffe08a; stroke: #ffffff; stroke-width: 2.4"/>
    <path d="M 364.894497 277.343526
L 363.690675 281.04851
L 359.795024 281.04851
L 362.946672 283.338315
L 361.742849 287.043299
L 364.894497 284.753493
L 368.046144 287.043299
L 366.842322 283.338315
L 369.993969 281.04851
L 366.098319 281.04851
z
" clip-path="url(#p31d3970042)" style="fill: #ffe08a; stroke: #17384a; stroke-width: 0.8"/>
    <path d="M 355.534467 303.417812
L 354.330645 307.122795
L 350.434995 307.122795
L 353.586642 309.412601
L 352.38282 313.117585
L 355.534467 310.827779
L 358.686115 313.117585
L 357.482293 309.412601
L 360.63394 307.122795
L 356.73829 307.122795
z
" clip-path="url(#p31d3970042)" style="fill: #ffe08a; stroke: #ffffff; stroke-width: 2.4"/>
    <path d="M 355.534467 303.417812
L 354.330645 307.122795
L 350.434995 307.122795
L 353.586642 309.412601
L 352.38282 313.117585
L 355.534467 310.827779
L 358.686115 313.117585
L 357.482293 309.412601
L 360.63394 307.122795
L 356.73829 307.122795
z
" clip-path="url(#p31d3970042)" style="fill: #ffe08a; stroke: #17384a; stroke-width: 0.8"/>
    <path d="M 435.257064 329.492097
L 434.053242 333.197081
L 430.157592 333.197081
L 433.309239 335.486887
L 432.105417 339.19187
L 435.257064 336.902065
L 438.408711 339.19187
L 437.204889 335.486887
L 440.356537 333.197081
L 436.460886 333.197081
z
" clip-path="url(#p31d3970042)" style="fill: #ffe08a; stroke: #ffffff; stroke-width: 2.4"/>
    <path d="M 435.257064 329.492097
L 434.053242 333.197081
L 430.157592 333.197081
L 433.309239 335.486887
L 432.105417 339.19187
L 435.257064 336.902065
L 438.408711 339.19187
L 437.204889 335.486887
L 440.356537 333.197081
L 436.460886 333.197081
z
" clip-path="url(#p31d3970042)" style="fill: #ffe08a; stroke: #17384a; stroke-width: 0.8"/>
    <path d="M 360.106237 355.566383
L 358.902414 359.271367
L 355.006764 359.271367
L 358.158412 361.561172
L 356.954589 365.266156
L 360.106237 362.97635
L 363.257884 365.266156
L 362.054062 361.561172
L 365.205709 359.271367
L 361.310059 359.271367
z
" clip-path="url(#p31d3970042)" style="fill: #ffe08a; stroke: #ffffff; stroke-width: 2.4"/>
    <path d="M 360.106237 355.566383
L 358.902414 359.271367
L 355.006764 359.271367
L 358.158412 361.561172
L 356.954589 365.266156
L 360.106237 362.97635
L 363.257884 365.266156
L 362.054062 361.561172
L 365.205709 359.271367
L 361.310059 359.271367
z
" clip-path="url(#p31d3970042)" style="fill: #ffe08a; stroke: #17384a; stroke-width: 0.8"/>
    <path d="M 422.203143 381.640669
L 420.999321 385.345652
L 417.103671 385.345652
L 420.255318 387.635458
L 419.051496 391.340442
L 422.203143 389.050636
L 425.354791 391.340442
L 424.150968 387.635458
L 427.302616 385.345652
L 423.406965 385.345652
z
" clip-path="url(#p31d3970042)" style="fill: #ffe08a; stroke: #ffffff; stroke-width: 2.4"/>
    <path d="M 422.203143 381.640669
L 420.999321 385.345652
L 417.103671 385.345652
L 420.255318 387.635458
L 419.051496 391.340442
L 422.203143 389.050636
L 425.354791 391.340442
L 424.150968 387.635458
L 427.302616 385.345652
L 423.406965 385.345652
z
" clip-path="url(#p31d3970042)" style="fill: #ffe08a; stroke: #17384a; stroke-width: 0.8"/>
   </g>
   <g id="text_29">
    <text style="font-weight: 700; font-size: 11px; font-family: 'DejaVu Sans'; text-anchor: start; fill: #17384a" x="483.093321" y="193.959255" transform="rotate(-0 483.093321 193.959255)">28.0%</text>
   </g>
   <g id="text_30">
    <text style="font-weight: 700; font-size: 11px; font-family: 'DejaVu Sans'; text-anchor: start; fill: #17384a" x="367.668321" y="220.033541" transform="rotate(-0 367.668321 220.033541)">7.0%</text>
   </g>
   <g id="text_31">
    <text style="font-weight: 700; font-size: 11px; font-family: 'DejaVu Sans'; text-anchor: start; fill: #17384a" x="367.668321" y="246.107827" transform="rotate(-0 367.668321 246.107827)">7.0%</text>
   </g>
   <g id="text_32">
    <text style="font-weight: 700; font-size: 11px; font-family: 'DejaVu Sans'; text-anchor: start; fill: #17384a" x="378.661179" y="272.182112" transform="rotate(-0 378.661179 272.182112)">9.0%</text>
   </g>
   <g id="text_33">
    <text style="font-weight: 700; font-size: 11px; font-family: 'DejaVu Sans'; text-anchor: start; fill: #17384a" x="367.668321" y="298.256398" transform="rotate(-0 367.668321 298.256398)">7.0%</text>
   </g>
   <g id="text_34">
    <text style="font-weight: 700; font-size: 11px; font-family: 'DejaVu Sans'; text-anchor: start; fill: #17384a" x="450.11475" y="324.330684" transform="rotate(-0 450.11475 324.330684)">22.0%</text>
   </g>
   <g id="text_35">
    <text style="font-weight: 700; font-size: 11px; font-family: 'DejaVu Sans'; text-anchor: start; fill: #17384a" x="367.668321" y="350.40497" transform="rotate(-0 367.668321 350.40497)">7.0%</text>
   </g>
   <g id="text_36">
    <text style="font-weight: 700; font-size: 11px; font-family: 'DejaVu Sans'; text-anchor: start; fill: #17384a" x="395.150464" y="376.479255" transform="rotate(-0 395.150464 376.479255)">12.0%</text>
   </g>
  </g>
  <g id="axes_3">
   <g id="patch_20">
    <path d="M 581.204571 398.736
L 801.061714 398.736
L 801.061714 179.712
L 581.204571 179.712
z
" style="fill: #f4f7fa"/>
   </g>
   <g id="matplotlib.axis_5">
    <g id="xtick_11">
     <g id="line2d_37">
      <path d="M 581.204571 398.736
L 581.204571 179.712
" clip-path="url(#p774160fe0d)" style="fill: none; stroke: #dae3eb; stroke-width: 0.8; stroke-linecap: square"/>
     </g>
     <g id="line2d_38"/>
     <g id="text_37">
      <text style="font-size: 12px; font-family: 'DejaVu Sans'; text-anchor: middle; fill: #516572" x="581.204571" y="411.354125" transform="rotate(-0 581.204571 411.354125)">0%</text>
     </g>
    </g>
    <g id="xtick_12">
     <g id="line2d_39">
      <path d="M 636.168857 398.736
L 636.168857 179.712
" clip-path="url(#p774160fe0d)" style="fill: none; stroke: #dae3eb; stroke-width: 0.8; stroke-linecap: square"/>
     </g>
     <g id="line2d_40"/>
     <g id="text_38">
      <text style="font-size: 12px; font-family: 'DejaVu Sans'; text-anchor: middle; fill: #516572" x="636.168857" y="411.354125" transform="rotate(-0 636.168857 411.354125)">10%</text>
     </g>
    </g>
    <g id="xtick_13">
     <g id="line2d_41">
      <path d="M 691.133143 398.736
L 691.133143 179.712
" clip-path="url(#p774160fe0d)" style="fill: none; stroke: #dae3eb; stroke-width: 0.8; stroke-linecap: square"/>
     </g>
     <g id="line2d_42"/>
     <g id="text_39">
      <text style="font-size: 12px; font-family: 'DejaVu Sans'; text-anchor: middle; fill: #516572" x="691.133143" y="411.354125" transform="rotate(-0 691.133143 411.354125)">20%</text>
     </g>
    </g>
    <g id="xtick_14">
     <g id="line2d_43">
      <path d="M 746.097429 398.736
L 746.097429 179.712
" clip-path="url(#p774160fe0d)" style="fill: none; stroke: #dae3eb; stroke-width: 0.8; stroke-linecap: square"/>
     </g>
     <g id="line2d_44"/>
     <g id="text_40">
      <text style="font-size: 12px; font-family: 'DejaVu Sans'; text-anchor: middle; fill: #516572" x="746.097429" y="411.354125" transform="rotate(-0 746.097429 411.354125)">30%</text>
     </g>
    </g>
    <g id="xtick_15">
     <g id="line2d_45">
      <path d="M 801.061714 398.736
L 801.061714 179.712
" clip-path="url(#p774160fe0d)" style="fill: none; stroke: #dae3eb; stroke-width: 0.8; stroke-linecap: square"/>
     </g>
     <g id="line2d_46"/>
     <g id="text_41">
      <text style="font-size: 12px; font-family: 'DejaVu Sans'; text-anchor: middle; fill: #516572" x="801.061714" y="411.354125" transform="rotate(-0 801.061714 411.354125)">40%</text>
     </g>
    </g>
   </g>
   <g id="matplotlib.axis_6">
    <g id="ytick_17">
     <g id="line2d_47"/>
    </g>
    <g id="ytick_18">
     <g id="line2d_48"/>
    </g>
    <g id="ytick_19">
     <g id="line2d_49"/>
    </g>
    <g id="ytick_20">
     <g id="line2d_50"/>
    </g>
    <g id="ytick_21">
     <g id="line2d_51"/>
    </g>
    <g id="ytick_22">
     <g id="line2d_52"/>
    </g>
    <g id="ytick_23">
     <g id="line2d_53"/>
    </g>
    <g id="ytick_24">
     <g id="line2d_54"/>
    </g>
   </g>
   <g id="patch_21">
    <path d="M 581.204571 189.620229
L 674.643857 189.620229
L 674.643857 206.307771
L 581.204571 206.307771
z
" clip-path="url(#p774160fe0d)" style="fill: #cf3049"/>
   </g>
   <g id="patch_22">
    <path d="M 581.204571 215.694514
L 619.679571 215.694514
L 619.679571 232.382057
L 581.204571 232.382057
z
" clip-path="url(#p774160fe0d)" style="fill: #96254b"/>
   </g>
   <g id="patch_23">
    <path d="M 581.204571 241.7688
L 586.701 241.7688
L 586.701 258.456343
L 581.204571 258.456343
z
" clip-path="url(#p774160fe0d)" style="fill: #80a52b"/>
   </g>
   <g id="patch_24">
    <path d="M 581.204571 267.843086
L 740.601 267.843086
L 740.601 284.530629
L 581.204571 284.530629
z
" clip-path="url(#p774160fe0d)" style="fill: #268659"/>
   </g>
   <g id="patch_25">
    <path d="M 581.204571 293.917371
L 603.190286 293.917371
L 603.190286 310.604914
L 581.204571 310.604914
z
" clip-path="url(#p774160fe0d)" style="fill: #259bbb"/>
   </g>
   <g id="patch_26">
    <path d="M 581.204571 319.991657
L 641.665286 319.991657
L 641.665286 336.6792
L 581.204571 336.6792
z
" clip-path="url(#p774160fe0d)" style="fill: #2074b6"/>
   </g>
   <g id="patch_27">
    <path d="M 581.204571 346.065943
L 636.168857 346.065943
L 636.168857 362.753486
L 581.204571 362.753486
z
" clip-path="url(#p774160fe0d)" style="fill: #51469a"/>
   </g>
   <g id="patch_28">
    <path d="M 581.204571 372.140229
L 691.133143 372.140229
L 691.133143 388.827771
L 581.204571 388.827771
z
" clip-path="url(#p774160fe0d)" style="fill: #d3a700"/>
   </g>
   <g id="text_42">
    <text style="font-weight: 700; font-size: 13px; font-family: 'DejaVu Sans'; text-anchor: middle" x="691.133143" y="163.712" transform="rotate(-0 691.133143 163.712)">Agricultores</text>
   </g>
   <g id="PathCollection_3">
    <path d="M 735.152625 199.120669
L 733.948803 202.825652
L 730.053153 202.825652
L 733.2048 205.115458
L 732.000978 208.820442
L 735.152625 206.530636
L 738.304273 208.820442
L 737.10045 205.115458
L 740.252098 202.825652
L 736.356448 202.825652
z
" clip-path="url(#p774160fe0d)" style="fill: #ffe08a; stroke: #ffffff; stroke-width: 2.4"/>
    <path d="M 735.152625 199.120669
L 733.948803 202.825652
L 730.053153 202.825652
L 733.2048 205.115458
L 732.000978 208.820442
L 735.152625 206.530636
L 738.304273 208.820442
L 737.10045 205.115458
L 740.252098 202.825652
L 736.356448 202.825652
z
" clip-path="url(#p774160fe0d)" style="fill: #ffe08a; stroke: #17384a; stroke-width: 0.8"/>
    <path d="M 627.359978 225.194954
L 626.156156 228.899938
L 622.260506 228.899938
L 625.412153 231.189744
L 624.208331 234.894728
L 627.359978 232.604922
L 630.511625 234.894728
L 629.307803 231.189744
L 632.45945 228.899938
L 628.5638 228.899938
z
" clip-path="url(#p774160fe0d)" style="fill: #ffe08a; stroke: #ffffff; stroke-width: 2.4"/>
    <path d="M 627.359978 225.194954
L 626.156156 228.899938
L 622.260506 228.899938
L 625.412153 231.189744
L 624.208331 234.894728
L 627.359978 232.604922
L 630.511625 234.894728
L 629.307803 231.189744
L 632.45945 228.899938
L 628.5638 228.899938
z
" clip-path="url(#p774160fe0d)" style="fill: #ffe08a; stroke: #17384a; stroke-width: 0.8"/>
    <path d="M 614.914239 251.26924
L 613.710417 254.974224
L 609.814767 254.974224
L 612.966414 257.26403
L 611.762592 260.969013
L 614.914239 258.679207
L 618.065886 260.969013
L 616.862064 257.26403
L 620.013712 254.974224
L 616.118061 254.974224
z
" clip-path="url(#p774160fe0d)" style="fill: #ffe08a; stroke: #ffffff; stroke-width: 2.4"/>
    <path d="M 614.914239 251.26924
L 613.710417 254.974224
L 609.814767 254.974224
L 612.966414 257.26403
L 611.762592 260.969013
L 614.914239 258.679207
L 618.065886 260.969013
L 616.862064 257.26403
L 620.013712 254.974224
L 616.118061 254.974224
z
" clip-path="url(#p774160fe0d)" style="fill: #ffe08a; stroke: #17384a; stroke-width: 0.8"/>
    <path d="M 619.928782 277.343526
L 618.72496 281.04851
L 614.82931 281.04851
L 617.980957 283.338315
L 616.777135 287.043299
L 619.928782 284.753493
L 623.08043 287.043299
L 621.876608 283.338315
L 625.028255 281.04851
L 621.132605 281.04851
z
" clip-path="url(#p774160fe0d)" style="fill: #ffe08a; stroke: #ffffff; stroke-width: 2.4"/>
    <path d="M 619.928782 277.343526
L 618.72496 281.04851
L 614.82931 281.04851
L 617.980957 283.338315
L 616.777135 287.043299
L 619.928782 284.753493
L 623.08043 287.043299
L 621.876608 283.338315
L 625.028255 281.04851
L 621.132605 281.04851
z
" clip-path="url(#p774160fe0d)" style="fill: #ffe08a; stroke: #17384a; stroke-width: 0.8"/>
    <path d="M 610.568753 303.417812
L 609.364931 307.122795
L 605.469281 307.122795
L 608.620928 309.412601
L 607.417106 313.117585
L 610.568753 310.827779
L 613.7204 313.117585
L 612.516578 309.412601
L 615.668226 307.122795
L 611.772575 307.122795
z
" clip-path="url(#p774160fe0d)" style="fill: #ffe08a; stroke: #ffffff; stroke-width: 2.4"/>
    <path d="M 610.568753 303.417812
L 609.364931 307.122795
L 605.469281 307.122795
L 608.620928 309.412601
L 607.417106 313.117585
L 610.568753 310.827779
L 613.7204 313.117585
L 612.516578 309.412601
L 615.668226 307.122795
L 611.772575 307.122795
z
" clip-path="url(#p774160fe0d)" style="fill: #ffe08a; stroke: #17384a; stroke-width: 0.8"/>
    <path d="M 690.29135 329.492097
L 689.087528 333.197081
L 685.191877 333.197081
L 688.343525 335.486887
L 687.139702 339.19187
L 690.29135 336.902065
L 693.442997 339.19187
L 692.239175 335.486887
L 695.390822 333.197081
L 691.495172 333.197081
z
" clip-path="url(#p774160fe0d)" style="fill: #ffe08a; stroke: #ffffff; stroke-width: 2.4"/>
    <path d="M 690.29135 329.492097
L 689.087528 333.197081
L 685.191877 333.197081
L 688.343525 335.486887
L 687.139702 339.19187
L 690.29135 336.902065
L 693.442997 339.19187
L 692.239175 335.486887
L 695.390822 333.197081
L 691.495172 333.197081
z
" clip-path="url(#p774160fe0d)" style="fill: #ffe08a; stroke: #17384a; stroke-width: 0.8"/>
    <path d="M 615.140522 355.566383
L 613.9367 359.271367
L 610.04105 359.271367
L 613.192697 361.561172
L 611.988875 365.266156
L 615.140522 362.97635
L 618.29217 365.266156
L 617.088347 361.561172
L 620.239995 359.271367
L 616.344344 359.271367
z
" clip-path="url(#p774160fe0d)" style="fill: #ffe08a; stroke: #ffffff; stroke-width: 2.4"/>
    <path d="M 615.140522 355.566383
L 613.9367 359.271367
L 610.04105 359.271367
L 613.192697 361.561172
L 611.988875 365.266156
L 615.140522 362.97635
L 618.29217 365.266156
L 617.088347 361.561172
L 620.239995 359.271367
L 616.344344 359.271367
z
" clip-path="url(#p774160fe0d)" style="fill: #ffe08a; stroke: #17384a; stroke-width: 0.8"/>
    <path d="M 677.237429 381.640669
L 676.033607 385.345652
L 672.137956 385.345652
L 675.289604 387.635458
L 674.085782 391.340442
L 677.237429 389.050636
L 680.389076 391.340442
L 679.185254 387.635458
L 682.336901 385.345652
L 678.441251 385.345652
z
" clip-path="url(#p774160fe0d)" style="fill: #ffe08a; stroke: #ffffff; stroke-width: 2.4"/>
    <path d="M 677.237429 381.640669
L 676.033607 385.345652
L 672.137956 385.345652
L 675.289604 387.635458
L 674.085782 391.340442
L 677.237429 389.050636
L 680.389076 391.340442
L 679.185254 387.635458
L 682.336901 385.345652
L 678.441251 385.345652
z
" clip-path="url(#p774160fe0d)" style="fill: #ffe08a; stroke: #17384a; stroke-width: 0.8"/>
   </g>
   <g id="text_43">
    <text style="font-weight: 700; font-size: 11px; font-family: 'DejaVu Sans'; text-anchor: start; fill: #17384a" x="677.666893" y="193.959255" transform="rotate(-0 677.666893 193.959255)">17.0%</text>
   </g>
   <g id="text_44">
    <text style="font-weight: 700; font-size: 11px; font-family: 'DejaVu Sans'; text-anchor: start; fill: #17384a" x="622.702607" y="220.033541" transform="rotate(-0 622.702607 220.033541)">7.0%</text>
   </g>
   <g id="text_45">
    <text style="font-weight: 700; font-size: 11px; font-family: 'DejaVu Sans'; text-anchor: start; fill: #17384a" x="589.724036" y="246.107827" transform="rotate(-0 589.724036 246.107827)">1.0%</text>
   </g>
   <g id="text_46">
    <text style="font-weight: 700; font-size: 11px; font-family: 'DejaVu Sans'; text-anchor: start; fill: #17384a" x="743.624036" y="272.182112" transform="rotate(-0 743.624036 272.182112)">29.0%</text>
   </g>
   <g id="text_47">
    <text style="font-weight: 700; font-size: 11px; font-family: 'DejaVu Sans'; text-anchor: start; fill: #17384a" x="606.213321" y="298.256398" transform="rotate(-0 606.213321 298.256398)">4.0%</text>
   </g>
   <g id="text_48">
    <text style="font-weight: 700; font-size: 11px; font-family: 'DejaVu Sans'; text-anchor: start; fill: #17384a" x="644.688321" y="324.330684" transform="rotate(-0 644.688321 324.330684)">11.0%</text>
   </g>
   <g id="text_49">
    <text style="font-weight: 700; font-size: 11px; font-family: 'DejaVu Sans'; text-anchor: start; fill: #17384a" x="639.191893" y="350.40497" transform="rotate(-0 639.191893 350.40497)">10.0%</text>
   </g>
   <g id="text_50">
    <text style="font-weight: 700; font-size: 11px; font-family: 'DejaVu Sans'; text-anchor: start; fill: #17384a" x="694.156179" y="376.479255" transform="rotate(-0 694.156179 376.479255)">20.0%</text>
   </g>
  </g>
  <g id="axes_4">
   <g id="patch_29">
    <path d="M 836.238857 398.736
L 1056.096 398.736
L 1056.096 179.712
L 836.238857 179.712
z
" style="fill: #f4f7fa"/>
   </g>
   <g id="matplotlib.axis_7">
    <g id="xtick_16">
     <g id="line2d_55">
      <path d="M 836.238857 398.736
L 836.238857 179.712
" clip-path="url(#p760878178e)" style="fill: none; stroke: #dae3eb; stroke-width: 0.8; stroke-linecap: square"/>
     </g>
     <g id="line2d_56"/>
     <g id="text_51">
      <text style="font-size: 12px; font-family: 'DejaVu Sans'; text-anchor: middle; fill: #516572" x="836.238857" y="411.354125" transform="rotate(-0 836.238857 411.354125)">0%</text>
     </g>
    </g>
    <g id="xtick_17">
     <g id="line2d_57">
      <path d="M 891.203143 398.736
L 891.203143 179.712
" clip-path="url(#p760878178e)" style="fill: none; stroke: #dae3eb; stroke-width: 0.8; stroke-linecap: square"/>
     </g>
     <g id="line2d_58"/>
     <g id="text_52">
      <text style="font-size: 12px; font-family: 'DejaVu Sans'; text-anchor: middle; fill: #516572" x="891.203143" y="411.354125" transform="rotate(-0 891.203143 411.354125)">10%</text>
     </g>
    </g>
    <g id="xtick_18">
     <g id="line2d_59">
      <path d="M 946.167429 398.736
L 946.167429 179.712
" clip-path="url(#p760878178e)" style="fill: none; stroke: #dae3eb; stroke-width: 0.8; stroke-linecap: square"/>
     </g>
     <g id="line2d_60"/>
     <g id="text_53">
      <text style="font-size: 12px; font-family: 'DejaVu Sans'; text-anchor: middle; fill: #516572" x="946.167429" y="411.354125" transform="rotate(-0 946.167429 411.354125)">20%</text>
     </g>
    </g>
    <g id="xtick_19">
     <g id="line2d_61">
      <path d="M 1001.131714 398.736
L 1001.131714 179.712
" clip-path="url(#p760878178e)" style="fill: none; stroke: #dae3eb; stroke-width: 0.8; stroke-linecap: square"/>
     </g>
     <g id="line2d_62"/>
     <g id="text_54">
      <text style="font-size: 12px; font-family: 'DejaVu Sans'; text-anchor: middle; fill: #516572" x="1001.131714" y="411.354125" transform="rotate(-0 1001.131714 411.354125)">30%</text>
     </g>
    </g>
    <g id="xtick_20">
     <g id="line2d_63">
      <path d="M 1056.096 398.736
L 1056.096 179.712
" clip-path="url(#p760878178e)" style="fill: none; stroke: #dae3eb; stroke-width: 0.8; stroke-linecap: square"/>
     </g>
     <g id="line2d_64"/>
     <g id="text_55">
      <text style="font-size: 12px; font-family: 'DejaVu Sans'; text-anchor: middle; fill: #516572" x="1056.096" y="411.354125" transform="rotate(-0 1056.096 411.354125)">40%</text>
     </g>
    </g>
   </g>
   <g id="matplotlib.axis_8">
    <g id="ytick_25">
     <g id="line2d_65"/>
    </g>
    <g id="ytick_26">
     <g id="line2d_66"/>
    </g>
    <g id="ytick_27">
     <g id="line2d_67"/>
    </g>
    <g id="ytick_28">
     <g id="line2d_68"/>
    </g>
    <g id="ytick_29">
     <g id="line2d_69"/>
    </g>
    <g id="ytick_30">
     <g id="line2d_70"/>
    </g>
    <g id="ytick_31">
     <g id="line2d_71"/>
    </g>
    <g id="ytick_32">
     <g id="line2d_72"/>
    </g>
   </g>
   <g id="patch_30">
    <path d="M 836.238857 189.620229
L 918.685286 189.620229
L 918.685286 206.307771
L 836.238857 206.307771
z
" clip-path="url(#p760878178e)" style="fill: #cf3049"/>
   </g>
   <g id="patch_31">
    <path d="M 836.238857 215.694514
L 869.217429 215.694514
L 869.217429 232.382057
L 836.238857 232.382057
z
" clip-path="url(#p760878178e)" style="fill: #96254b"/>
   </g>
   <g id="patch_32">
    <path d="M 836.238857 241.7688
L 869.217429 241.7688
L 869.217429 258.456343
L 836.238857 258.456343
z
" clip-path="url(#p760878178e)" style="fill: #80a52b"/>
   </g>
   <g id="patch_33">
    <path d="M 836.238857 267.843086
L 891.203143 267.843086
L 891.203143 284.530629
L 836.238857 284.530629
z
" clip-path="url(#p760878178e)" style="fill: #268659"/>
   </g>
   <g id="patch_34">
    <path d="M 836.238857 293.917371
L 880.210286 293.917371
L 880.210286 310.604914
L 836.238857 310.604914
z
" clip-path="url(#p760878178e)" style="fill: #259bbb"/>
   </g>
   <g id="patch_35">
    <path d="M 836.238857 319.991657
L 968.153143 319.991657
L 968.153143 336.6792
L 836.238857 336.6792
z
" clip-path="url(#p760878178e)" style="fill: #2074b6"/>
   </g>
   <g id="patch_36">
    <path d="M 836.238857 346.065943
L 869.217429 346.065943
L 869.217429 362.753486
L 836.238857 362.753486
z
" clip-path="url(#p760878178e)" style="fill: #51469a"/>
   </g>
   <g id="patch_37">
    <path d="M 836.238857 372.140229
L 962.656714 372.140229
L 962.656714 388.827771
L 836.238857 388.827771
z
" clip-path="url(#p760878178e)" style="fill: #d3a700"/>
   </g>
   <g id="text_56">
    <text style="font-weight: 700; font-size: 13px; font-family: 'DejaVu Sans'; text-anchor: middle" x="946.167429" y="163.712" transform="rotate(-0 946.167429 163.712)">Empresarios</text>
   </g>
   <g id="PathCollection_4">
    <path d="M 990.186911 199.120669
L 988.983089 202.825652
L 985.087439 202.825652
L 988.239086 205.115458
L 987.035264 208.820442
L 990.186911 206.530636
L 993.338558 208.820442
L 992.134736 205.115458
L 995.286384 202.825652
L 991.390733 202.825652
z
" clip-path="url(#p760878178e)" style="fill: #ffe08a; stroke: #ffffff; stroke-width: 2.4"/>
    <path d="M 990.186911 199.120669
L 988.983089 202.825652
L 985.087439 202.825652
L 988.239086 205.115458
L 987.035264 208.820442
L 990.186911 206.530636
L 993.338558 208.820442
L 992.134736 205.115458
L 995.286384 202.825652
L 991.390733 202.825652
z
" clip-path="url(#p760878178e)" style="fill: #ffe08a; stroke: #17384a; stroke-width: 0.8"/>
    <path d="M 882.394264 225.194954
L 881.190442 228.899938
L 877.294791 228.899938
L 880.446439 231.189744
L 879.242616 234.894728
L 882.394264 232.604922
L 885.545911 234.894728
L 884.342089 231.189744
L 887.493736 228.899938
L 883.598086 228.899938
z
" clip-path="url(#p760878178e)" style="fill: #ffe08a; stroke: #ffffff; stroke-width: 2.4"/>
    <path d="M 882.394264 225.194954
L 881.190442 228.899938
L 877.294791 228.899938
L 880.446439 231.189744
L 879.242616 234.894728
L 882.394264 232.604922
L 885.545911 234.894728
L 884.342089 231.189744
L 887.493736 228.899938
L 883.598086 228.899938
z
" clip-path="url(#p760878178e)" style="fill: #ffe08a; stroke: #17384a; stroke-width: 0.8"/>
    <path d="M 869.948525 251.26924
L 868.744703 254.974224
L 864.849052 254.974224
L 868.0007 257.26403
L 866.796878 260.969013
L 869.948525 258.679207
L 873.100172 260.969013
L 871.89635 257.26403
L 875.047997 254.974224
L 871.152347 254.974224
z
" clip-path="url(#p760878178e)" style="fill: #ffe08a; stroke: #ffffff; stroke-width: 2.4"/>
    <path d="M 869.948525 251.26924
L 868.744703 254.974224
L 864.849052 254.974224
L 868.0007 257.26403
L 866.796878 260.969013
L 869.948525 258.679207
L 873.100172 260.969013
L 871.89635 257.26403
L 875.047997 254.974224
L 871.152347 254.974224
z
" clip-path="url(#p760878178e)" style="fill: #ffe08a; stroke: #17384a; stroke-width: 0.8"/>
    <path d="M 874.963068 277.343526
L 873.759246 281.04851
L 869.863596 281.04851
L 873.015243 283.338315
L 871.811421 287.043299
L 874.963068 284.753493
L 878.114715 287.043299
L 876.910893 283.338315
L 880.062541 281.04851
L 876.16689 281.04851
z
" clip-path="url(#p760878178e)" style="fill: #ffe08a; stroke: #ffffff; stroke-width: 2.4"/>
    <path d="M 874.963068 277.343526
L 873.759246 281.04851
L 869.863596 281.04851
L 873.015243 283.338315
L 871.811421 287.043299
L 874.963068 284.753493
L 878.114715 287.043299
L 876.910893 283.338315
L 880.062541 281.04851
L 876.16689 281.04851
z
" clip-path="url(#p760878178e)" style="fill: #ffe08a; stroke: #17384a; stroke-width: 0.8"/>
    <path d="M 865.603039 303.417812
L 864.399217 307.122795
L 860.503566 307.122795
L 863.655214 309.412601
L 862.451392 313.117585
L 865.603039 310.827779
L 868.754686 313.117585
L 867.550864 309.412601
L 870.702511 307.122795
L 866.806861 307.122795
z
" clip-path="url(#p760878178e)" style="fill: #ffe08a; stroke: #ffffff; stroke-width: 2.4"/>
    <path d="M 865.603039 303.417812
L 864.399217 307.122795
L 860.503566 307.122795
L 863.655214 309.412601
L 862.451392 313.117585
L 865.603039 310.827779
L 868.754686 313.117585
L 867.550864 309.412601
L 870.702511 307.122795
L 866.806861 307.122795
z
" clip-path="url(#p760878178e)" style="fill: #ffe08a; stroke: #17384a; stroke-width: 0.8"/>
    <path d="M 945.325636 329.492097
L 944.121813 333.197081
L 940.226163 333.197081
L 943.37781 335.486887
L 942.173988 339.19187
L 945.325636 336.902065
L 948.477283 339.19187
L 947.273461 335.486887
L 950.425108 333.197081
L 946.529458 333.197081
z
" clip-path="url(#p760878178e)" style="fill: #ffe08a; stroke: #ffffff; stroke-width: 2.4"/>
    <path d="M 945.325636 329.492097
L 944.121813 333.197081
L 940.226163 333.197081
L 943.37781 335.486887
L 942.173988 339.19187
L 945.325636 336.902065
L 948.477283 339.19187
L 947.273461 335.486887
L 950.425108 333.197081
L 946.529458 333.197081
z
" clip-path="url(#p760878178e)" style="fill: #ffe08a; stroke: #17384a; stroke-width: 0.8"/>
    <path d="M 870.174808 355.566383
L 868.970986 359.271367
L 865.075336 359.271367
L 868.226983 361.561172
L 867.023161 365.266156
L 870.174808 362.97635
L 873.326455 365.266156
L 872.122633 361.561172
L 875.27428 359.271367
L 871.37863 359.271367
z
" clip-path="url(#p760878178e)" style="fill: #ffe08a; stroke: #ffffff; stroke-width: 2.4"/>
    <path d="M 870.174808 355.566383
L 868.970986 359.271367
L 865.075336 359.271367
L 868.226983 361.561172
L 867.023161 365.266156
L 870.174808 362.97635
L 873.326455 365.266156
L 872.122633 361.561172
L 875.27428 359.271367
L 871.37863 359.271367
z
" clip-path="url(#p760878178e)" style="fill: #ffe08a; stroke: #17384a; stroke-width: 0.8"/>
    <path d="M 932.271715 381.640669
L 931.067893 385.345652
L 927.172242 385.345652
L 930.32389 387.635458
L 929.120067 391.340442
L 932.271715 389.050636
L 935.423362 391.340442
L 934.21954 387.635458
L 937.371187 385.345652
L 933.475537 385.345652
z
" clip-path="url(#p760878178e)" style="fill: #ffe08a; stroke: #ffffff; stroke-width: 2.4"/>
    <path d="M 932.271715 381.640669
L 931.067893 385.345652
L 927.172242 385.345652
L 930.32389 387.635458
L 929.120067 391.340442
L 932.271715 389.050636
L 935.423362 391.340442
L 934.21954 387.635458
L 937.371187 385.345652
L 933.475537 385.345652
z
" clip-path="url(#p760878178e)" style="fill: #ffe08a; stroke: #17384a; stroke-width: 0.8"/>
   </g>
   <g id="text_57">
    <text style="font-weight: 700; font-size: 11px; font-family: 'DejaVu Sans'; text-anchor: start; fill: #17384a" x="921.708321" y="193.959255" transform="rotate(-0 921.708321 193.959255)">15.0%</text>
   </g>
   <g id="text_58">
    <text style="font-weight: 700; font-size: 11px; font-family: 'DejaVu Sans'; text-anchor: start; fill: #17384a" x="872.240464" y="220.033541" transform="rotate(-0 872.240464 220.033541)">6.0%</text>
   </g>
   <g id="text_59">
    <text style="font-weight: 700; font-size: 11px; font-family: 'DejaVu Sans'; text-anchor: start; fill: #17384a" x="872.240464" y="246.107827" transform="rotate(-0 872.240464 246.107827)">6.0%</text>
   </g>
   <g id="text_60">
    <text style="font-weight: 700; font-size: 11px; font-family: 'DejaVu Sans'; text-anchor: start; fill: #17384a" x="894.226179" y="272.182112" transform="rotate(-0 894.226179 272.182112)">10.0%</text>
   </g>
   <g id="text_61">
    <text style="font-weight: 700; font-size: 11px; font-family: 'DejaVu Sans'; text-anchor: start; fill: #17384a" x="883.233321" y="298.256398" transform="rotate(-0 883.233321 298.256398)">8.0%</text>
   </g>
   <g id="text_62">
    <text style="font-weight: 700; font-size: 11px; font-family: 'DejaVu Sans'; text-anchor: start; fill: #17384a" x="971.176179" y="324.330684" transform="rotate(-0 971.176179 324.330684)">24.0%</text>
   </g>
   <g id="text_63">
    <text style="font-weight: 700; font-size: 11px; font-family: 'DejaVu Sans'; text-anchor: start; fill: #17384a" x="872.240464" y="350.40497" transform="rotate(-0 872.240464 350.40497)">6.0%</text>
   </g>
   <g id="text_64">
    <text style="font-weight: 700; font-size: 11px; font-family: 'DejaVu Sans'; text-anchor: start; fill: #17384a" x="965.67975" y="376.479255" transform="rotate(-0 965.67975 376.479255)">23.0%</text>
   </g>
  </g>
  <g id="text_65">
   <text style="font-weight: 700; font-size: 25px; font-family: 'DejaVu Sans'; text-anchor: start; fill: #15394c" x="49.248" y="44.928" transform="rotate(-0 49.248 44.928)">Suecia 2026 · Ocupación detallada</text>
  </g>
  <g id="text_66">
   <text style="font-size: 13px; font-family: 'DejaVu Sans'; text-anchor: start; fill: #516572" x="49.248" y="75.816" transform="rotate(-0 49.248 75.816)">% de voto a cada partido dentro del grupo · SVT VALU</text>
  </g>
  <g id="text_67">
   <text style="font-size: 9.5px; font-family: 'DejaVu Sans'; fill: #516572" transform="translate(49.248 439.284523)">Desglose del informe ampliado: trabajadores manuales, empleados no manuales, agricultores y empresarios por separado. No clasifica la</text>
   <text style="font-size: 9.5px; font-family: 'DejaVu Sans'; fill: #516572" transform="translate(49.248 452.088)">situación laboral.</text>
  </g>
  <g id="text_68">
   <text style="font-size: 9.5px; font-family: 'DejaVu Sans'; fill: #516572" transform="translate(49.248 492.636523)">SVT VALU · Informe ampliado, 15 sep 2026 · 13.709 respuestas en total; sin tamaños por subgrupo en estas tablas.</text>
   <text style="font-size: 9.5px; font-family: 'DejaVu Sans'; fill: #516572" transform="translate(49.248 505.44)">Ponderado al resultado provisional de la noche electoral. Porcentajes publicados como enteros; sumas aproximadas. Ocho partidos mostrados.</text>
  </g>
  <g id="text_69">
   <a xlink:href="https://x.com/Calcetinletal">
    <text style="font-weight: 700; font-size: 12px; font-family: 'DejaVu Sans'; text-anchor: start; fill: #17384a" x="49.248" y="546.9984" transform="rotate(-0 49.248 546.9984)">Creado por @Calcetinletal</text>
   </a>
  </g>
  <g id="text_70">
   <a xlink:href="https://omoss.svt.se/download/18.c7d6c981a0a583535d1535/1789484134179/Valu%202026%20seminarium%20260915.pdf#page=22">
    <text style="font-size: 10px; font-family: 'DejaVu Sans'; text-anchor: end; fill: #516572" x="1045.152" y="546.9984" transform="rotate(-0 1045.152 546.9984)">Fuente: SVT VALU · Informe 15 sep · p. 22</text>
   </a>
  </g>
  <g id="legend_1">
   <g id="line2d_73">
    <defs>
     <path id="m93e57ac435" d="M 0 -6.5
L -1.459341 -2.00861
L -6.181867 -2.00861
L -2.361263 0.767221
L -3.820604 5.25861
L -0 2.482779
L 3.820604 5.25861
L 2.361263 0.767221
L 6.181867 -2.00861
L 1.459341 -2.00861
z
" style="stroke: #17384a; stroke-linejoin: bevel"/>
    </defs>
    <g>
     <use xlink:href="#m93e57ac435" x="62.9204" y="125.846406" style="fill: #ffe08a; stroke: #17384a; stroke-linejoin: bevel"/>
    </g>
   </g>
   <g id="text_71">
    <text style="font-size: 9.5px; font-family: 'DejaVu Sans'; text-anchor: start; fill: #17384a" x="77.1704" y="129.171406" transform="rotate(-0 77.1704 129.171406)">Resultado nacional · % de votos válidos · Valmyndigheten · 17/09/2026 17:22 CEST · provisional</text>
   </g>
  </g>
 </g>
 <defs>
  <clipPath id="p49db801394">
   <rect x="71.136" y="179.712" width="219.857143" height="219.024"/>
  </clipPath>
  <clipPath id="p31d3970042">
   <rect x="326.170286" y="179.712" width="219.857143" height="219.024"/>
  </clipPath>
  <clipPath id="p774160fe0d">
   <rect x="581.204571" y="179.712" width="219.857143" height="219.024"/>
  </clipPath>
  <clipPath id="p760878178e">
   <rect x="836.238857" y="179.712" width="219.857143" height="219.024"/>
  </clipPath>
 </defs>
</svg>
